<svg width="17" height="16" viewBox="0 0 17 16" fill="none" xmlns="http://www.w3.org/2000/svg">
<path fill-rule="evenodd" clip-rule="evenodd" d="M8.58057 0C4.16057 0 0.580566 3.4593 0.580566 7.73027C0.580566 11.1509 2.87057 14.0401 6.05057 15.0644C6.45057 15.132 6.60057 14.9001 6.60057 14.6972C6.60057 14.5136 6.59057 13.9048 6.59057 13.2574C4.58057 13.6149 4.06057 12.7839 3.90057 12.3491C3.81057 12.1269 3.42057 11.4408 3.08057 11.2572C2.80057 11.1123 2.40057 10.7547 3.07057 10.7451C3.70057 10.7354 4.15057 11.3055 4.30057 11.5374C5.02057 12.7066 6.17057 12.3781 6.63057 12.1752C6.70057 11.6727 6.91057 11.3345 7.14057 11.1413C5.36057 10.948 3.50057 10.2813 3.50057 7.32443C3.50057 6.48377 3.81057 5.78804 4.32057 5.24692C4.24057 5.05367 3.96057 4.26131 4.40057 3.1984C4.40057 3.1984 5.07057 2.99548 6.60057 3.99075C7.24057 3.81682 7.92057 3.72986 8.60057 3.72986C9.28057 3.72986 9.96057 3.81682 10.6006 3.99075C12.1306 2.98582 12.8006 3.1984 12.8006 3.1984C13.2406 4.26131 12.9606 5.05367 12.8806 5.24692C13.3906 5.78804 13.7006 6.4741 13.7006 7.32443C13.7006 10.2909 11.8306 10.948 10.0506 11.1413C10.3406 11.3828 10.5906 11.8466 10.5906 12.5714C10.5906 13.6053 10.5806 14.4363 10.5806 14.6972C10.5806 14.9001 10.7306 15.1417 11.1306 15.0644C12.7187 14.5463 14.0987 13.56 15.0763 12.2443C16.054 10.9287 16.5801 9.34995 16.5806 7.73027C16.5806 3.4593 13.0006 0 8.58057 0Z" fill="white" fill-opacity="0.5"/>
</svg>
