<svg width="25" height="34" viewBox="0 0 25 34" fill="none" xmlns="http://www.w3.org/2000/svg">
<path d="M12.5008 26.1419V18.1414M12.5008 18.1414C13.2766 18.142 14.0494 18.0452 14.8008 17.8534M12.5008 18.1414C11.725 18.142 10.9522 18.0452 10.2008 17.8534M15.9508 29.2492C13.6711 29.6794 11.3304 29.6794 9.05077 29.2492M14.8008 32.8807C13.2716 33.0398 11.7299 33.0398 10.2008 32.8807M15.9508 26.1419V25.8493C15.9508 24.3513 16.9597 23.0712 18.263 22.32C20.4526 21.0597 22.1629 19.117 23.1289 16.7928C24.0949 14.4686 24.2627 11.8926 23.6062 9.46399C22.9497 7.03539 21.5057 4.88976 19.4978 3.35956C17.4899 1.82935 15.0303 1 12.5 1C9.96975 1 7.51012 1.82935 5.50223 3.35956C3.49434 4.88976 2.05029 7.03539 1.39381 9.46399C0.73733 11.8926 0.905083 14.4686 1.87107 16.7928C2.83706 19.117 4.54736 21.0597 6.73697 22.32C8.0403 23.0712 9.05077 24.3513 9.05077 25.8493V26.1419" stroke="#F1EA49" stroke-width="1.5" stroke-linecap="round" stroke-linejoin="round"/>
</svg>
