<svg width="10" height="11" viewBox="0 0 10 11" fill="none" xmlns="http://www.w3.org/2000/svg">
<path d="M6.275 7.29441L4.5 5.5161V3.01145H5.5V5.10283L6.975 6.58058L6.275 7.29441ZM4.5 2.00958V1.00772H5.5V2.00958H4.5ZM8 5.5161V4.51424H9V5.5161H8ZM4.5 9.02262V8.02076H5.5V9.02262H4.5ZM1 5.5161V4.51424H2V5.5161H1ZM5 10.0245C4.30833 10.0245 3.65833 9.8929 3.05 9.62975C2.44167 9.36659 1.9125 9.00976 1.4625 8.55926C1.0125 8.10842 0.656333 7.57827 0.394 6.9688C0.131667 6.35933 0.000333333 5.70813 0 5.01517C0 4.32222 0.131333 3.67101 0.394 3.06154C0.656667 2.45207 1.01283 1.92192 1.4625 1.47108C1.9125 1.02024 2.44167 0.663415 3.05 0.400593C3.65833 0.137771 4.30833 0.00619333 5 0.00585938C5.69167 0.00585938 6.34167 0.137437 6.95 0.400593C7.55833 0.663749 8.0875 1.02058 8.5375 1.47108C8.9875 1.92192 9.34383 2.45207 9.6065 3.06154C9.86917 3.67101 10.0003 4.32222 10 5.01517C10 5.70813 9.86867 6.35933 9.606 6.9688C9.34333 7.57827 8.98717 8.10842 8.5375 8.55926C8.0875 9.0101 7.55833 9.36709 6.95 9.63025C6.34167 9.8934 5.69167 10.0248 5 10.0245ZM5 9.02262C6.11667 9.02262 7.0625 8.6344 7.8375 7.85795C8.6125 7.08151 9 6.13392 9 5.01517C9 3.89642 8.6125 2.94883 7.8375 2.17239C7.0625 1.39594 6.11667 1.00772 5 1.00772C3.88333 1.00772 2.9375 1.39594 2.1625 2.17239C1.3875 2.94883 1 3.89642 1 5.01517C1 6.13392 1.3875 7.08151 2.1625 7.85795C2.9375 8.6344 3.88333 9.02262 5 9.02262Z" fill="#6D2D2D"/>
</svg>
