<svg width="264" height="396" viewBox="0 0 264 396" fill="none" xmlns="http://www.w3.org/2000/svg">
<path d="M264.211 59.1162C285.612 77.3213 282.045 142.097 284.639 194.172C287.234 246.247 295.34 286.044 290.476 324.571C285.288 363.098 267.13 400.355 241.837 457.511C216.221 514.666 183.471 592.143 138.075 614.582C92.6787 637.444 34.9608 605.268 9.66863 548.113C-15.6235 490.957 -8.48982 407.976 -1.03189 347.01C6.42605 285.621 13.5597 245.824 8.37159 179.778C2.8592 114.155 -15.2992 22.2827 6.42605 3.65427C28.1513 -14.5508 89.4361 40.4878 142.939 54.0357C196.766 68.007 242.81 40.4878 264.211 59.1162Z" fill="#20571E"/>
</svg>
