<svg width="26" height="26" viewBox="0 0 26 26" fill="none" xmlns="http://www.w3.org/2000/svg">
<path d="M2.88889 0H23.1111C23.8773 0 24.6121 0.304364 25.1539 0.846136C25.6956 1.38791 26 2.12271 26 2.88889V23.1111C26 23.8773 25.6956 24.6121 25.1539 25.1539C24.6121 25.6956 23.8773 26 23.1111 26H2.88889C2.12271 26 1.38791 25.6956 0.846136 25.1539C0.304364 24.6121 0 23.8773 0 23.1111V2.88889C0 2.12271 0.304364 1.38791 0.846136 0.846136C1.38791 0.304364 2.12271 0 2.88889 0ZM14.4444 14.4444V5.77778H11.5556V14.4444H14.4444ZM14.4444 20.2222V17.3333H11.5556V20.2222H14.4444Z" fill="#E36C29"/>
</svg>
