<svg width="19" height="20" viewBox="0 0 19 20" fill="none" xmlns="http://www.w3.org/2000/svg">
<path d="M16.4783 10.54C16.5183 10.24 16.5383 9.93 16.5383 9.6C16.5383 9.28 16.5183 8.96 16.4683 8.66L18.4983 7.08C18.5858 7.0079 18.6456 6.9077 18.6675 6.79647C18.6894 6.68524 18.672 6.56987 18.6183 6.47L16.6983 3.15C16.6418 3.04957 16.5516 2.97238 16.4436 2.93211C16.3356 2.89184 16.2168 2.8911 16.1083 2.93L13.7183 3.89C13.2183 3.51 12.6883 3.19 12.0983 2.95L11.7383 0.410003C11.7206 0.295533 11.6625 0.19121 11.5744 0.115979C11.4863 0.0407481 11.3742 -0.000401505 11.2583 2.9534e-06H7.41834C7.17834 2.9534e-06 6.98834 0.170003 6.94834 0.410003L6.58834 2.95C5.99834 3.19 5.45834 3.52 4.96834 3.89L2.57834 2.93C2.35834 2.85 2.10834 2.93 1.98834 3.15L0.078343 6.47C-0.0416569 6.68 -0.00165707 6.94 0.198343 7.08L2.22834 8.66C2.17834 8.96 2.13834 9.29 2.13834 9.6C2.13834 9.91 2.15834 10.24 2.20834 10.54L0.178343 12.12C0.0908669 12.1921 0.0310966 12.2923 0.00921549 12.4035C-0.0126656 12.5148 0.00469628 12.6301 0.0583431 12.73L1.97834 16.05C2.09834 16.27 2.34834 16.34 2.56834 16.27L4.95834 15.31C5.45834 15.69 5.98834 16.01 6.57834 16.25L6.93834 18.79C6.98834 19.03 7.17834 19.2 7.41834 19.2H11.2583C11.4983 19.2 11.6983 19.03 11.7283 18.79L12.0883 16.25C12.6783 16.01 13.2183 15.69 13.7083 15.31L16.0983 16.27C16.3183 16.35 16.5683 16.27 16.6883 16.05L18.6083 12.73C18.7283 12.51 18.6783 12.26 18.4883 12.12L16.4783 10.54ZM9.33834 13.2C7.35834 13.2 5.73834 11.58 5.73834 9.6C5.73834 7.62 7.35834 6 9.33834 6C11.3183 6 12.9383 7.62 12.9383 9.6C12.9383 11.58 11.3183 13.2 9.33834 13.2Z" fill="#959595"/>
</svg>
