<svg width="32" height="32" viewBox="0 0 32 32" fill="none" xmlns="http://www.w3.org/2000/svg">
<path d="M16 32C11.7571 31.9982 7.68851 30.3119 4.68833 27.3117C1.68814 24.3115 0.00184258 20.2429 0 16C0.00184258 11.7571 1.68814 7.68851 4.68833 4.68833C7.68851 1.68814 11.7571 0.00184258 16 0H28.0007C29.0614 0 30.0786 0.421354 30.8286 1.17137C31.5786 1.92138 32 2.93862 32 3.9993V16C31.9982 20.2429 30.3119 24.3115 27.3117 27.3117C24.3115 30.3119 20.2429 31.9982 16 32Z" fill="#148FCC"/>
<path d="M15.7608 23.9263C15.8624 23.9912 15.9841 24.0173 16.1034 23.9996C16.2227 23.982 16.3316 23.9219 16.4102 23.8304L21.814 16.8191L23.078 15.1865C23.3867 14.8027 23.078 14.2576 22.5663 14.2576H14.4272L16.4171 8.58824C16.4496 8.49607 16.4504 8.39571 16.4194 8.30303C16.3884 8.21035 16.3274 8.13064 16.2461 8.07651C16.1444 8.01159 16.0228 7.98555 15.9035 8.00318C15.7842 8.02081 15.6752 8.08092 15.5967 8.17246L10.1873 15.2157L8.92191 16.8483C8.61459 17.2321 8.92191 17.7772 9.43503 17.7772H17.5727L15.5897 23.4438C15.5566 23.5315 15.5556 23.628 15.5869 23.7164C15.6182 23.8047 15.6798 23.8791 15.7608 23.9263Z" fill="white"/>
</svg>