<svg width="16" height="16" viewBox="0 0 16 16" fill="none" xmlns="http://www.w3.org/2000/svg">
<path fill-rule="evenodd" clip-rule="evenodd" d="M0.580567 2.15033C0.580567 1.83631 0.709664 1.53515 0.939458 1.3131C1.16925 1.09105 1.48092 0.96631 1.8059 0.96631H14.0206C14.1816 0.966056 14.3411 0.996499 14.49 1.0559C14.6389 1.11529 14.7741 1.20248 14.8881 1.31246C15.002 1.42244 15.0924 1.55305 15.154 1.69683C15.2156 1.8406 15.2473 1.99471 15.2472 2.15033V13.9532C15.2474 14.1088 15.2158 14.263 15.1543 14.4068C15.0927 14.5507 15.0024 14.6814 14.8886 14.7915C14.7747 14.9015 14.6395 14.9889 14.4907 15.0484C14.3418 15.108 14.1823 15.1386 14.0212 15.1385H1.8059C1.64493 15.1385 1.48554 15.1078 1.33683 15.0483C1.18812 14.9887 1.05301 14.9015 0.939223 14.7915C0.825431 14.6814 0.735188 14.5508 0.673648 14.4071C0.612109 14.2634 0.580479 14.1094 0.580567 13.9538V2.15033ZM6.3859 6.36977H8.3719V7.33348C8.65857 6.77948 9.3919 6.28087 10.4939 6.28087C12.6066 6.28087 13.1072 7.38437 13.1072 9.40906V13.1595H10.9692V9.8703C10.9692 8.7172 10.6826 8.06657 9.95457 8.06657C8.94457 8.06657 8.52457 8.76809 8.52457 9.8703V13.1595H6.3859V6.36977ZM2.71923 13.0713H4.8579V6.28087H2.71923V13.0706V13.0713ZM5.1639 4.06615C5.16793 4.24309 5.13535 4.41903 5.06806 4.58364C5.00077 4.74824 4.90013 4.89821 4.77205 5.02472C4.64397 5.15124 4.49103 5.25176 4.3222 5.32039C4.15337 5.38902 3.97206 5.42437 3.7889 5.42437C3.60574 5.42437 3.42443 5.38902 3.2556 5.32039C3.08677 5.25176 2.93383 5.15124 2.80575 5.02472C2.67767 4.89821 2.57703 4.74824 2.50974 4.58364C2.44245 4.41903 2.40987 4.24309 2.4139 4.06615C2.42181 3.71884 2.57016 3.38833 2.82716 3.1454C3.08416 2.90247 3.42938 2.76644 3.7889 2.76644C4.14842 2.76644 4.49364 2.90247 4.75064 3.1454C5.00764 3.38833 5.15598 3.71884 5.1639 4.06615Z" fill="white" fill-opacity="0.5"/>
</svg>
