<svg width="16" height="13" viewBox="0 0 16 13" fill="none" xmlns="http://www.w3.org/2000/svg">
<path d="M15.7179 2.34308C15.1612 2.58143 14.5632 2.74248 13.9346 2.81527C14.5832 2.44022 15.0685 1.84993 15.2999 1.15455C14.6905 1.50434 14.0235 1.75055 13.3279 1.88249C12.8602 1.3999 12.2406 1.08004 11.5655 0.972552C10.8903 0.865068 10.1973 0.975978 9.59406 1.28806C8.99082 1.60015 8.51108 2.09595 8.22934 2.69848C7.94759 3.30102 7.87959 3.97659 8.0359 4.62029C6.80102 4.56038 5.59299 4.25024 4.49018 3.70999C3.38738 3.16974 2.41446 2.41147 1.63457 1.48438C1.3679 1.92887 1.21457 2.44422 1.21457 2.99307C1.21427 3.48716 1.34019 3.97368 1.58115 4.40947C1.82212 4.84526 2.17067 5.21684 2.5959 5.49124C2.10275 5.47607 1.62048 5.34731 1.18923 5.11567V5.15432C1.18918 5.84731 1.43725 6.51896 1.89136 7.05533C2.34546 7.59169 2.97761 7.95973 3.68057 8.09698C3.22309 8.21662 2.74346 8.23424 2.2779 8.14852C2.47623 8.74479 2.86256 9.2662 3.38281 9.63977C3.90306 10.0133 4.53118 10.2203 5.17923 10.2318C4.07912 11.0663 2.72049 11.519 1.3219 11.517C1.07415 11.517 0.826617 11.5031 0.580566 11.4751C2.00022 12.3571 3.65279 12.8252 5.34057 12.8234C11.0539 12.8234 14.1772 8.25094 14.1772 4.28531C14.1772 4.15648 14.1739 4.02635 14.1679 3.89751C14.7754 3.47297 15.2998 2.94726 15.7166 2.34501L15.7179 2.34308Z" fill="white" fill-opacity="0.5"/>
</svg>
