<svg width="23" height="22" viewBox="0 0 23 22" fill="none" xmlns="http://www.w3.org/2000/svg">
<path d="M2.51978 0H19.6456C20.2944 0 20.9167 0.256101 21.3755 0.711964C21.8344 1.16783 22.0921 1.78611 22.0921 2.4308V19.4464C22.0921 20.0911 21.8344 20.7094 21.3755 21.1652C20.9167 21.6211 20.2944 21.8772 19.6456 21.8772H2.51978C1.87092 21.8772 1.24863 21.6211 0.789817 21.1652C0.331002 20.7094 0.0732422 20.0911 0.0732422 19.4464V2.4308C0.0732422 1.78611 0.331002 1.16783 0.789817 0.711964C1.24863 0.256101 1.87092 0 2.51978 0ZM12.3059 12.154V4.8616H9.85941V12.154H12.3059ZM12.3059 17.0156V14.5848H9.85941V17.0156H12.3059Z" fill="#EEA206"/>
</svg>
