<svg width="31" height="30" viewBox="0 0 31 30" fill="none" xmlns="http://www.w3.org/2000/svg">
<path fill-rule="evenodd" clip-rule="evenodd" d="M11.7013 1.80038C11.4589 2.01384 11.2042 2.21367 10.9384 2.39888C10.4791 2.69888 9.96273 2.90588 9.42018 3.01088C9.18436 3.05588 8.93775 3.07538 8.44606 3.11288C7.21146 3.20888 6.59339 3.25688 6.07859 3.43388C5.48996 3.63613 4.95533 3.96408 4.51392 4.39365C4.07251 4.82323 3.73553 5.34353 3.5277 5.91638C3.34583 6.41738 3.2965 7.01888 3.19786 8.22038C3.18105 8.53803 3.14606 8.85452 3.09305 9.16838C2.98516 9.69638 2.77245 10.1989 2.46419 10.6459C2.33009 10.8409 2.1698 11.0239 1.8492 11.3884C1.04617 12.3064 0.643888 12.7654 0.408065 13.2454C-0.136022 14.3554 -0.136022 15.6454 0.408065 16.7554C0.643888 17.2354 1.04617 17.6944 1.8492 18.6124C2.1698 18.9769 2.33009 19.1599 2.46419 19.3549C2.77245 19.8019 2.98516 20.3044 3.09305 20.8324C3.13929 21.0619 3.15933 21.3019 3.19786 21.7804C3.2965 22.9819 3.34583 23.5834 3.5277 24.0844C3.73553 24.6572 4.07251 25.1775 4.51392 25.6071C4.95533 26.0367 5.48996 26.3646 6.07859 26.5669C6.59339 26.7439 7.21146 26.7919 8.44606 26.8879C8.93775 26.9254 9.18436 26.9449 9.42018 26.9899C9.96273 27.0949 10.4791 27.3034 10.9384 27.6019C11.1388 27.7324 11.3268 27.8884 11.7013 28.2004C12.6446 28.9819 13.1163 29.3734 13.6095 29.6029C14.7501 30.1324 16.0756 30.1324 17.2162 29.6029C17.7094 29.3734 18.1811 28.9819 19.1243 28.2004C19.4989 27.8884 19.6869 27.7324 19.8873 27.6019C20.3466 27.3019 20.863 27.0949 21.4055 26.9899C21.6413 26.9449 21.8879 26.9254 22.3796 26.8879C23.6142 26.7919 24.2323 26.7439 24.7471 26.5669C25.3357 26.3646 25.8704 26.0367 26.3118 25.6071C26.7532 25.1775 27.0902 24.6572 27.298 24.0844C27.4799 23.5834 27.5292 22.9819 27.6278 21.7804C27.6664 21.3019 27.6864 21.0619 27.7326 20.8324C27.8405 20.3044 28.0548 19.8019 28.3615 19.3549C28.4956 19.1599 28.6559 18.9769 28.9765 18.6124C29.7795 17.6944 30.1818 17.2354 30.4176 16.7554C30.9617 15.6454 30.9617 14.3554 30.4176 13.2454C30.1818 12.7654 29.7795 12.3064 28.9765 11.3884C28.7571 11.1525 28.5518 10.9046 28.3615 10.6459C28.0535 10.1987 27.8398 9.69651 27.7326 9.16838C27.6797 8.85451 27.6447 8.53802 27.6278 8.22038C27.5292 7.01888 27.4799 6.41738 27.298 5.91638C27.0902 5.34353 26.7532 4.82323 26.3118 4.39365C25.8704 3.96408 25.3357 3.63613 24.7471 3.43388C24.2323 3.25688 23.6142 3.20888 22.3796 3.11288C22.0532 3.09652 21.728 3.06246 21.4055 3.01088C20.8628 2.90661 20.3468 2.69859 19.8873 2.39888C19.6218 2.21327 19.3671 2.01347 19.1243 1.80038C18.1811 1.01888 17.7094 0.627378 17.2162 0.397878C16.6531 0.13595 16.0369 0 15.4128 0C14.7887 0 14.1726 0.13595 13.6095 0.397878C13.1163 0.627378 12.6446 1.01888 11.7013 1.80038ZM22.153 11.7949C22.3709 11.5628 22.4884 11.258 22.4811 10.9438C22.4738 10.6295 22.3423 10.3302 22.114 10.1079C21.8856 9.88567 21.578 9.75768 21.2551 9.7506C20.9322 9.74352 20.619 9.85787 20.3805 10.0699L12.9051 17.3449L10.4452 14.9524C10.2067 14.7404 9.89348 14.626 9.5706 14.6331C9.24772 14.6402 8.94009 14.7682 8.71172 14.9904C8.48335 15.2127 8.35185 15.512 8.34457 15.8263C8.33729 16.1405 8.45479 16.4453 8.67264 16.6774L12.0173 19.9324C12.2525 20.1608 12.5713 20.2891 12.9036 20.2891C13.2359 20.2891 13.5546 20.1608 13.7898 19.9324L22.1546 11.7949H22.153Z" fill="#53AC50"/>
</svg>
