<svg width="30" height="30" viewBox="0 0 30 30" fill="none" xmlns="http://www.w3.org/2000/svg">
<path fill-rule="evenodd" clip-rule="evenodd" d="M11.3879 1.80038C11.152 2.01384 10.9041 2.21367 10.6454 2.39888C10.1984 2.69888 9.69587 2.90588 9.16785 3.01088C8.93835 3.05588 8.69834 3.07538 8.21983 3.11288C7.0183 3.20888 6.41678 3.25688 5.91577 3.43388C5.34291 3.63613 4.82259 3.96408 4.39301 4.39365C3.96343 4.82323 3.63547 5.34353 3.43321 5.91638C3.25621 6.41738 3.2082 7.01888 3.1122 8.22038C3.09584 8.53803 3.06179 8.85452 3.0102 9.16838C2.9052 9.69638 2.69819 10.1989 2.39818 10.6459C2.26768 10.8409 2.11168 11.0239 1.79967 11.3884C1.01815 12.3064 0.626641 12.7654 0.397135 13.2454C-0.132378 14.3554 -0.132378 15.6454 0.397135 16.7554C0.626641 17.2354 1.01815 17.6944 1.79967 18.6124C2.11168 18.9769 2.26768 19.1599 2.39818 19.3549C2.69819 19.8019 2.9052 20.3044 3.0102 20.8324C3.0552 21.0619 3.0747 21.3019 3.1122 21.7804C3.2082 22.9819 3.25621 23.5834 3.43321 24.0844C3.63547 24.6572 3.96343 25.1775 4.39301 25.6071C4.82259 26.0367 5.34291 26.3646 5.91577 26.5669C6.41678 26.7439 7.0183 26.7919 8.21983 26.8879C8.69834 26.9254 8.93835 26.9449 9.16785 26.9899C9.69587 27.0949 10.1984 27.3034 10.6454 27.6019C10.8404 27.7324 11.0234 27.8884 11.3879 28.2004C12.3059 28.9819 12.7649 29.3734 13.245 29.6029C14.355 30.1324 15.645 30.1324 16.755 29.6029C17.2351 29.3734 17.6941 28.9819 18.6121 28.2004C18.9766 27.8884 19.1596 27.7324 19.3546 27.6019C19.8016 27.3019 20.3041 27.0949 20.8321 26.9899C21.0616 26.9449 21.3017 26.9254 21.7802 26.8879C22.9817 26.7919 23.5832 26.7439 24.0842 26.5669C24.6571 26.3646 25.1774 26.0367 25.607 25.6071C26.0366 25.1775 26.3645 24.6572 26.5668 24.0844C26.7438 23.5834 26.7918 22.9819 26.8878 21.7804C26.9253 21.3019 26.9448 21.0619 26.9898 20.8324C27.0948 20.3044 27.3033 19.8019 27.6018 19.3549C27.7323 19.1599 27.8883 18.9769 28.2003 18.6124C28.9818 17.6944 29.3734 17.2354 29.6029 16.7554C30.1324 15.6454 30.1324 14.3554 29.6029 13.2454C29.3734 12.7654 28.9818 12.3064 28.2003 11.3884C27.9869 11.1525 27.787 10.9046 27.6018 10.6459C27.3021 10.1987 27.0941 9.69651 26.9898 9.16838C26.9383 8.85451 26.9042 8.53802 26.8878 8.22038C26.7918 7.01888 26.7438 6.41738 26.5668 5.91638C26.3645 5.34353 26.0366 4.82323 25.607 4.39365C25.1774 3.96408 24.6571 3.63613 24.0842 3.43388C23.5832 3.25688 22.9817 3.20888 21.7802 3.11288C21.4625 3.09652 21.146 3.06246 20.8321 3.01088C20.304 2.90661 19.8018 2.69859 19.3546 2.39888C19.0962 2.21327 18.8483 2.01347 18.6121 1.80038C17.6941 1.01888 17.2351 0.627378 16.755 0.397878C16.2071 0.13595 15.6074 0 15 0C14.3926 0 13.7929 0.13595 13.245 0.397878C12.7649 0.627378 12.3059 1.01888 11.3879 1.80038ZM21.5597 11.7949C21.7717 11.5628 21.886 11.258 21.8789 10.9438C21.8719 10.6295 21.7439 10.3302 21.5216 10.1079C21.2994 9.88567 21 9.75768 20.6858 9.7506C20.3715 9.74352 20.0667 9.85787 19.8346 10.0699L12.5594 17.3449L10.1654 14.9524C9.93334 14.7404 9.62848 14.626 9.31425 14.6331C9.00002 14.6402 8.70062 14.7682 8.47837 14.9904C8.25612 15.2127 8.12814 15.512 8.12105 15.8263C8.11397 16.1405 8.22833 16.4453 8.44034 16.6774L11.6954 19.9324C11.9243 20.1608 12.2345 20.2891 12.5579 20.2891C12.8813 20.2891 13.1915 20.1608 13.4205 19.9324L21.5612 11.7949H21.5597Z" fill="#53AC50"/>
</svg>
