<svg width="30" height="30" viewBox="0 0 30 30" fill="none" xmlns="http://www.w3.org/2000/svg">
<path d="M15 0C14.2502 0 13.5004 0.284964 12.8855 0.884889L0.888528 12.8834C-0.296176 14.0532 -0.296176 15.943 0.888528 17.1129L12.8855 29.1114C14.0552 30.2962 15.9448 30.2962 17.1145 29.1114L29.1115 17.1129C30.2962 15.943 30.2962 14.0532 29.1115 12.8834L17.1145 0.884889C16.4996 0.284964 15.7498 0 15 0ZM13.5004 8.99869C13.5004 8.17047 14.1718 7.49906 15 7.49906C15.8282 7.49906 16.4996 8.17047 16.4996 8.99869V14.9983C16.4996 15.8265 15.8282 16.4979 15 16.4979C14.1718 16.4979 13.5004 15.8265 13.5004 14.9983V8.99869ZM13.5004 20.9974C13.5004 20.1692 14.1718 19.4976 15 19.4976C15.8282 19.4976 16.4996 20.1692 16.4996 20.9974C16.4996 21.8256 15.8282 22.4972 15 22.4972C14.1718 22.4972 13.5004 21.8256 13.5004 20.9974Z" fill="#CC0000"/>
</svg>
