<svg width="10" height="11" viewBox="0 0 10 11" fill="none" xmlns="http://www.w3.org/2000/svg">
<path d="M6.275 7.64236L4.5 5.77773V3.15149H5.5V5.3444L6.975 6.89388L6.275 7.64236ZM4.5 2.10099V1.0505H5.5V2.10099H4.5ZM8 5.77773V4.72723H9V5.77773H8ZM4.5 9.45447V8.40397H5.5V9.45447H4.5ZM1 5.77773V4.72723H2V5.77773H1ZM5 10.505C4.30833 10.505 3.65833 10.367 3.05 10.0911C2.44167 9.81514 1.9125 9.44098 1.4625 8.96861C1.0125 8.49589 0.656333 7.94 0.394 7.30095C0.131667 6.6619 0.000333333 5.97907 0 5.25248C0 4.52589 0.131333 3.84307 0.394 3.20401C0.656667 2.56496 1.01283 2.00907 1.4625 1.53635C1.9125 1.06363 2.44167 0.689476 3.05 0.413896C3.65833 0.138315 4.30833 0.000350165 5 0C5.69167 0 6.34167 0.137965 6.95 0.413896C7.55833 0.689826 8.0875 1.06398 8.5375 1.53635C8.9875 2.00907 9.34383 2.56496 9.6065 3.20401C9.86917 3.84307 10.0003 4.52589 10 5.25248C10 5.97907 9.86867 6.6619 9.606 7.30095C9.34333 7.94 8.98717 8.49589 8.5375 8.96861C8.0875 9.44133 7.55833 9.81566 6.95 10.0916C6.34167 10.3675 5.69167 10.5053 5 10.505ZM5 9.45447C6.11667 9.45447 7.0625 9.0474 7.8375 8.23326C8.6125 7.41913 9 6.42554 9 5.25248C9 4.07943 8.6125 3.08583 7.8375 2.2717C7.0625 1.45756 6.11667 1.0505 5 1.0505C3.88333 1.0505 2.9375 1.45756 2.1625 2.2717C1.3875 3.08583 1 4.07943 1 5.25248C1 6.42554 1.3875 7.41913 2.1625 8.23326C2.9375 9.0474 3.88333 9.45447 5 9.45447Z" fill="#2D6D37"/>
</svg>
