<svg width="29" height="29" viewBox="0 0 29 29" fill="none" xmlns="http://www.w3.org/2000/svg">
<path d="M15.95 15.95H13.05V7.25H15.95M15.95 21.75H13.05V18.85H15.95M14.5 0C12.5958 0 10.7103 0.375054 8.95109 1.10375C7.19187 1.83244 5.5934 2.9005 4.24695 4.24695C1.52767 6.96623 0 10.6544 0 14.5C0 18.3456 1.52767 22.0338 4.24695 24.753C5.5934 26.0995 7.19187 27.1676 8.95109 27.8963C10.7103 28.6249 12.5958 29 14.5 29C18.3456 29 22.0338 27.4723 24.753 24.753C27.4723 22.0338 29 18.3456 29 14.5C29 12.5958 28.6249 10.7103 27.8963 8.95109C27.1676 7.19187 26.0995 5.5934 24.753 4.24695C23.4066 2.9005 21.8081 1.83244 20.0489 1.10375C18.2897 0.375054 16.4042 0 14.5 0Z" fill="#EEA206"/>
</svg>
