<svg width="14" height="14" viewBox="0 0 14 14" fill="none" xmlns="http://www.w3.org/2000/svg">
<path d="M6.82429 3.87117C5.05086 3.87117 3.61961 5.25417 3.61961 6.96781C3.61961 8.68146 5.05086 10.0645 6.82429 10.0645C8.59773 10.0645 10.029 8.68146 10.029 6.96781C10.029 5.25417 8.59773 3.87117 6.82429 3.87117ZM6.82429 8.9804C5.67742 8.9804 4.74148 8.07602 4.74148 6.96781C4.74148 5.8596 5.67742 4.95522 6.82429 4.95522C7.97117 4.95522 8.90711 5.8596 8.90711 6.96781C8.90711 8.07602 7.97117 8.9804 6.82429 8.9804ZM10.1602 3.02266C9.74617 3.02266 9.41179 3.34576 9.41179 3.74586C9.41179 4.14596 9.74617 4.46906 10.1602 4.46906C10.5743 4.46906 10.9087 4.14747 10.9087 3.74586C10.9088 3.65085 10.8895 3.55676 10.8519 3.46896C10.8144 3.38116 10.7593 3.30139 10.6897 3.23421C10.6202 3.16703 10.5377 3.11377 10.4468 3.07746C10.3559 3.04116 10.2586 3.02254 10.1602 3.02266ZM13.0712 6.96781C13.0712 6.13439 13.079 5.30852 13.0305 4.47661C12.9821 3.51033 12.754 2.65275 12.0227 1.94615C11.2899 1.23805 10.404 1.01913 9.40398 0.972322C8.54148 0.925517 7.68679 0.933066 6.82585 0.933066C5.96335 0.933066 5.10867 0.925517 4.24773 0.972322C3.24773 1.01913 2.36023 1.23956 1.62898 1.94615C0.896168 2.65426 0.669605 3.51033 0.621168 4.47661C0.57273 5.31003 0.580543 6.1359 0.580543 6.96781C0.580543 7.79972 0.57273 8.6271 0.621168 9.45901C0.669605 10.4253 0.89773 11.2829 1.62898 11.9895C2.36179 12.6976 3.24773 12.9165 4.24773 12.9633C5.11023 13.0101 5.96492 13.0026 6.82585 13.0026C7.68835 13.0026 8.54304 13.0101 9.40398 12.9633C10.404 12.9165 11.2915 12.6961 12.0227 11.9895C12.7555 11.2814 12.9821 10.4253 13.0305 9.45901C13.0805 8.6271 13.0712 7.80123 13.0712 6.96781ZM11.6962 10.528C11.5821 10.8028 11.4446 11.0081 11.2243 11.2195C11.004 11.4323 10.793 11.5652 10.5087 11.6754C9.68679 11.991 7.73523 11.92 6.82429 11.92C5.91336 11.92 3.96023 11.991 3.13836 11.6769C2.85398 11.5667 2.64148 11.4339 2.42273 11.221C2.20242 11.0081 2.06492 10.8043 1.95086 10.5295C1.62586 9.7338 1.69929 7.84804 1.69929 6.96781C1.69929 6.08759 1.62586 4.20031 1.95086 3.40615C2.06492 3.13136 2.20242 2.92603 2.42273 2.71465C2.64304 2.50328 2.85398 2.3689 3.13836 2.25869C3.96023 1.94464 5.91336 2.01561 6.82429 2.01561C7.73523 2.01561 9.68836 1.94464 10.5102 2.25869C10.7946 2.3689 11.0071 2.50177 11.2259 2.71465C11.4462 2.92754 11.5837 3.13136 11.6977 3.40615C12.0227 4.20031 11.9493 6.08759 11.9493 6.96781C11.9493 7.84804 12.0227 9.7338 11.6962 10.528Z" fill="white" fill-opacity="0.5"/>
</svg>
